<mxfile host="app.diagrams.net" modified="2023-03-29T08:05:33.072Z" agent="Mozilla/5.0 (Macintosh; Intel Mac OS X 10_15_7) AppleWebKit/537.36 (KHTML, like Gecko) Chrome/111.0.0.0 Safari/537.36" version="21.1.1" etag="TAqVfEFEjmsk0yaah5Q3" type="github">
  <diagram name="Page-1" id="kC5e5VDI0T15AJI26cH4">
    <mxGraphModel>
      <root>
        <mxCell id="0" />
        <mxCell id="1" parent="0" />
      </root>
    </mxGraphModel>
  </diagram>
</mxfile>
